<?xml version="1.0" encoding="UTF-8" standalone="no"?>
<svg
   width="38.5mm"
   height="27mm"
   viewBox="0 0 38.5 27"
   xmlns="http://www.w3.org/2000/svg"
   xmlns:svg="http://www.w3.org/2000/svg">
    <path
       style="fill:#7c0709;fill-opacity:1;stroke:none;stroke-width:0.222468px;stroke-linecap:butt;stroke-linejoin:miter;stroke-opacity:1"
       d="M 25.595855,0.01912028 C 25.31163,3.9046694 24.521391,4.3613497 22.013128,6.6714274 18.395682,8.9453991 13.839678,9.2969797 10.020577,11.134721 2.8569699,14.837398 -0.10333407,19.949028 0,27 l 4.888382,0.08313 C 4.3735795,24.194338 5.0771134,20.88322 7.3251344,18.300175 13.045914,11.066461 29.605836,15.023352 29.997136,0.01912028 Z" />
    <path
       style="fill:#ffb93f;fill-opacity:1;stroke:none;stroke-width:0.222468px;stroke-linecap:butt;stroke-linejoin:miter;stroke-opacity:1"
       d="M 9.3632506,27 C 7.1966219,18.023712 18.493628,17.917856 24.269538,15.141432 30.610895,11.89804 33.738015,7.5927895 34.067929,1.581235e-4 L 38.535812,0 c 0.441895,10.378686 -6.638377,16.455369 -12.762134,19.362118 -3.793206,1.785501 -7.214765,2.305778 -9.586335,3.260657 C 13.913935,23.538127 13.739801,24.951466 14.176804,27 Z" />
</svg>
