<?xml version="1.0" encoding="UTF-8" standalone="no"?>
<svg
   width="38.5mm"
   height="27mm"
   viewBox="0 0 38.5 27"
   version="1.1"
   xmlns="http://www.w3.org/2000/svg"
   xmlns:svg="http://www.w3.org/2000/svg">
    <path
       style="fill:#ffb93f;fill-opacity:1;stroke:none;stroke-width:0.222469px;stroke-linecap:butt;stroke-linejoin:miter;stroke-opacity:1"
       d="M 0.83402018,20.26011 C 1.9963622,15.72786 5.0144712,11.68435 8.8452432,9.00499 12.488257,6.11658 17.175048,4.65115 21.040078,3.55479 23.061626,2.98135 25.315459,2.48443 26.280396,0.05074 H 30.60465 C 30.170281,6.84127 20.962083,7.50418 16.662453,9.40187 12.119247,11.24437 7.8399672,14.43517 5.8942122,19.06783 4.7891192,21.52075 4.5407882,27 4.5407882,27 H 0 c -0.08812,0.0133 0.18244418,-4.81239 0.83402018,-6.73958 z" />
    <path
       style="fill:#7c0709;fill-opacity:1;stroke:none;stroke-width:0.222469px;stroke-linecap:butt;stroke-linejoin:miter;stroke-opacity:1"
       d="M 21.859093,12.19373 C 26.724418,10.89925 29.488107,9.50426 31.780444,7.18585 33.894663,4.63908 34.351985,2.89148 34.639108,0 L 38.5,0.065 V 1.9 c 0,6.7638268 -6.022781,12.06567 -15.081175,14.0974 -1.887035,0.42325 -5.171644,1.89119 -6.734605,2.77311 -2.678356,2.05827 -3.350956,3.29466 -3.746598,5.71623 C 12.823605,25.1846 12.799424,26.13946 12.857082,27 H 8.4514682 C 7.8802722,18.47594 14.592453,13.95724 21.859093,12.19373 Z" />
</svg>
