<?xml version="1.0" encoding="UTF-8" standalone="no"?>
<svg
   width="108mm"
   height="70mm"
   viewBox="0 0 108 70"
   xmlns="http://www.w3.org/2000/svg"
   xmlns:svg="http://www.w3.org/2000/svg">
<path
   style="fill:#e94e56;fill-opacity:1;stroke:none;stroke-width:0.0786545px;stroke-linecap:butt;stroke-linejoin:miter;stroke-opacity:1"
   d="m 21.763234,66.627869 c 2.92e-4,-9.46264 4.961907,-18.72899 12.149054,-24.79609 C 47.789742,30.811029 67.348601,31.085529 80.95444,19.635289 86.377411,14.701799 89.631749,7.350569 89.484803,0 h 11.719537 c -0.7429,8.542579 -2.945248,17.427139 -8.806388,23.964959 -8.14496,9.77615 -20.434226,14.51967 -32.303775,18.02087 -8.392501,2.73783 -17.817508,5.86018 -23.157966,12.89986 -3.131346,4.12767 -3.674543,9.9665 -3.625561,15.11431 H 21.76313 Z" />
<path
   style="fill:#ffb43c;fill-opacity:1;stroke:none;stroke-width:0.157309px;stroke-linecap:butt;stroke-linejoin:miter;stroke-opacity:1"
   d="M 0.1823755,65.174179 C 0.7743874,49.515799 8.5939674,34.379839 20.450996,24.254119 31.166762,15.337699 44.768425,11.288749 57.904348,7.448449 61.748108,5.825114 67.002644,4.472281 68.303233,0 h 11.271175 c -0.0107,8.075639 -7.092314,14.030969 -14.014487,16.775589 -9.503659,3.84136 -19.889388,5.37029 -28.890583,10.48881 -11.224273,5.9688 -21.192835,16.05174 -23.57727,28.93558 -1.073332,4.50017 -1.521203,9.17893 -1.539154,13.80002 -3.8509706,0.005 -7.7019426,-0.005 -11.552914,0 0.095013,-1.5957 0.1483443,-3.22775 0.1823755,-4.82582 z" />
<path
   style="fill:#e94e56;fill-opacity:1;stroke:none;stroke-width:0.0786545px;stroke-linecap:butt;stroke-linejoin:miter;stroke-opacity:1"
   d="M 73.715687,50.80584 84.209064,45.94781 C 91.634232,51.30397 99.597822,55.61661 108,59.2215 v 10.962 C 95.544752,66.49793 81.526621,59.27844 73.715687,50.80584 Z" />
</svg>
